<svg width="1640" height="1040" viewBox="0 0 1640 1040" version="1.1" xmlns="http://www.w3.org/2000/svg" xmlns:xlink="http://www.w3.org/1999/xlink">
<title>u1D416-WIKIPEDIA</title>
<desc>Created using Figma</desc>
<g id="Canvas" transform="matrix(40 0 0 40 -12000 -2920)">
<g id="logos/u1D416-WIKIPEDIA">
<g id="Vector">
<use xlink:href="#path0_fill" transform="translate(300.865 73.7237)"/>
</g>
</g>
</g>
<defs>
<path id="path0_fill" d="M 39.4264 0.00350486C 39.4264 0.00350486 33.298 0.00350486 31.2618 0.00350486L 31.1586 0.0766338L 31.1586 0.790714C 31.1586 0.875314 31.1973 0.944142 31.2719 0.99863C 31.3479 1.05455 31.4267 1.0861 31.5099 1.0861L 32.1881 1.11908C 33.0255 1.15349 33.2535 1.32126 33.5776 1.60087C 33.9002 1.88908 33.9389 2.37947 33.688 3.07061L 26.4611 20.2215L 26.183 20.1455L 21.5945 10.7577C 21.6561 10.6287 25.4545 3.51799 25.4545 3.51799C 25.8919 2.77523 26.3134 2.1142 26.5271 1.80735C 26.9185 1.24383 27.1379 1.13772 28.2076 1.08753C 28.4256 1.08753 28.536 0.990027 28.536 0.793583L 28.536 0.0823696L 28.4542 0.00637313C 28.4542 0.00637313 23.8615 -0.00796584 21.8167 0.00637313L 21.7149 0.0795014L 21.7149 0.790714C 21.7149 0.878182 21.7522 0.947009 21.8268 1.00006C 21.9028 1.05598 21.9802 1.08466 22.0634 1.08466L 22.3917 1.12051C 23.2277 1.15349 23.612 1.37431 23.7267 1.51053C 23.926 1.75429 24.0249 2.01813 23.5417 3.07204L 20.6539 8.83201L 18.0427 3.48931C 17.1853 1.78154 16.9745 1.25386 18.265 1.15349L 18.7754 1.08036C 19.0235 1.08036 19.1454 0.992894 19.1454 0.82226L 19.1454 0.0766338L 18.959 0.0149766C 18.959 0.0149766 14.0995 0.0149764 11.9157 0.0178442L 11.8139 0.0909731L 11.8139 0.840901C 11.8139 1.00867 11.9888 1.05025 12.3272 1.09613C 13.536 1.2553 13.5102 1.38148 14.706 3.75171C 14.8853 4.10732 18.5647 11.4833 18.9246 12.2805L 14.9656 20.177L 14.7405 20.1182C 14.7405 20.1182 8.59908 7.16869 6.82105 2.83545C 6.63607 2.38808 6.55291 2.05398 6.55291 1.84893C 6.55291 1.40872 6.9501 1.1707 7.74448 1.13772L 8.67077 1.099C 8.91597 1.099 9.04072 1.00436 9.04072 0.807921L 9.04072 0.0967082L 8.95755 0.0235793C 8.95755 0.0235793 1.60166 0.0149759 0.0817321 0.0235793L -2.51615e-07 0.0967082L -2.51615e-07 0.843769C -2.51615e-07 0.978555 0.170634 1.06172 0.513335 1.099C 1.4468 1.14919 2.06051 1.29831 2.35589 1.54638C 2.64984 1.79731 2.961 2.43109 3.37396 3.41905C 5.60654 8.78182 10.3499 18.3517 12.6599 23.8019C 13.3252 25.2903 14.1612 25.5211 15.1764 23.756C 16.1916 21.8733 18.2019 17.7724 19.7276 14.6307L 19.7863 14.3267C 19.8107 14.2392 19.8666 14.1704 19.9398 14.265L 20.0401 14.7339C 21.4583 17.8555 23.2965 21.869 24.2027 23.7359C 24.9555 25.2888 25.8116 25.4408 26.682 23.7833C 28.9561 18.7273 35.6022 3.51512 35.6022 3.51512C 35.8904 2.76806 36.2919 2.19307 36.8067 1.7758C 37.32 1.36141 38.113 1.12911 39.1827 1.0818C 39.4006 1.0818 39.511 0.98429 39.511 0.790714L 39.511 0.0766338L 39.4264 0.00350486Z"/>
</defs>
</svg>
