<svg width="1000" height="1040" viewBox="0 0 1000 1040" version="1.1" xmlns="http://www.w3.org/2000/svg" xmlns:xlink="http://www.w3.org/1999/xlink">
<title>u1D5DA-GOOGLE-PLUS</title>
<desc>Created using Figma</desc>
<g id="Canvas" transform="matrix(40 0 0 40 -6720 -2920)">
<g id="logos/u1D5DA-GOOGLE-PLUS">
<g id="Vector">
<g id="Vector">
<use xlink:href="#path0_fill" transform="translate(168.01 73.7083)"/>
</g>
</g>
</g>
</g>
<defs>
<path id="path0_fill" d="M 12.4992 10.7188L 12.4992 14.9914L 19.6281 14.9914C 19.4651 15.7727 19.1802 16.493 18.7734 17.1523C 18.3667 17.8117 17.8703 18.3854 17.2844 18.8734C 16.6984 19.3615 16.0393 19.7398 15.307 20.0086C 14.5747 20.2773 13.8016 20.4117 12.9875 20.4117L 12.7312 20.4117C 12.7312 20.4117 12.6458 20.4036 12.475 20.3875C 11.3844 20.3875 10.363 20.1841 9.41094 19.7773C 8.45885 19.3706 7.62474 18.8091 6.90859 18.093C 6.19245 17.3768 5.63099 16.5385 5.22422 15.5781C 4.81745 14.6177 4.61406 13.5922 4.61406 12.5016C 4.61406 11.4109 4.81745 10.3854 5.22422 9.425C 5.63099 8.46458 6.19245 7.6263 6.90859 6.91016C 7.62474 6.19401 8.46302 5.63255 9.42344 5.22578C 10.3839 4.81901 11.4094 4.61562 12.5 4.61562C 12.5161 4.61562 12.5365 4.61146 12.5609 4.60312C 12.5854 4.59479 12.6138 4.59063 12.6461 4.59063C 13.5904 4.59063 14.4773 4.76562 15.307 5.11562C 16.1367 5.46562 16.8693 5.94167 17.5047 6.54375L 20.9227 3.27187C 20.3857 2.76719 19.8039 2.31146 19.1773 1.90469C 18.5508 1.49792 17.8875 1.15599 17.1875 0.878906C 16.4875 0.601823 15.7591 0.386198 15.0023 0.232031C 14.2456 0.0778646 13.4685 0.000520833 12.6711 0L 12.5 0C 10.7745 0 9.15104 0.325521 7.62969 0.976562C 6.10833 1.6276 4.78177 2.51875 3.65 3.65C 2.51823 4.78125 1.62708 6.10781 0.976563 7.62969C 0.326042 9.15156 0.000521457 10.775 6.24001e-07 12.5C -0.000520209 14.225 0.325001 15.8484 0.976563 17.3703C 1.62813 18.8922 2.51927 20.2187 3.65 21.35C 4.78073 22.4812 6.10729 23.3724 7.62969 24.0234C 9.15208 24.6745 10.7755 25 12.5 25C 14.1604 25 15.7271 24.6826 17.2 24.0477C 18.6729 23.4128 19.9547 22.5461 21.0453 21.4477C 22.1359 20.3492 22.9945 19.0674 23.6211 17.6023C 24.2477 16.1372 24.5609 14.5667 24.5609 12.8906C 24.5609 12.5161 24.5445 12.1378 24.5117 11.7555C 24.4789 11.3732 24.4299 10.9948 24.3648 10.6203L 12.4992 10.7188Z"/>
</defs>
</svg>
