<svg width="480" height="1040" viewBox="0 0 480 1040" version="1.1" xmlns="http://www.w3.org/2000/svg" xmlns:xlink="http://www.w3.org/1999/xlink">
<title>u1D5F3-FACEBOOK</title>
<desc>Created using Figma</desc>
<g id="Canvas" transform="matrix(40 0 0 40 -7840 -2920)">
<g id="logos/u1D5F3-FACEBOOK">
<g id="Vector">
<g id="Vector">
<use xlink:href="#path0_fill" transform="translate(196 73.7083)"/>
</g>
</g>
</g>
</g>
<defs>
<path id="path0_fill" d="M 2.5632 8.15443L 0 8.15443L 0 12.427L 2.5632 12.427L 2.5632 25L 7.56773 25L 7.56773 12.427L 11.0098 12.427L 11.4246 8.15443L 7.56695 8.15443L 7.56695 5.7131C 7.56695 5.20843 7.63205 4.8462 7.76226 4.62642C 7.89246 4.40663 8.2099 4.29674 8.71457 4.29674L 11.4246 4.29674L 11.4246 0L 8.00678 0C 6.15111 0 4.7798 0.415091 3.89285 1.24527C 3.0059 2.07546 2.56242 3.27985 2.56242 4.85844L 2.56242 8.15443L 2.5632 8.15443Z"/>
</defs>
</svg>
