<svg width="1040" height="1040" viewBox="0 0 1040 1040" version="1.1" xmlns="http://www.w3.org/2000/svg" xmlns:xlink="http://www.w3.org/1999/xlink">
<title>u1D5F6u1D5FB-LINKEDIN</title>
<desc>Created using Figma</desc>
<g id="Canvas" transform="matrix(40 0 0 40 -10880 -2920)">
<g id="logos/u1D5F6u1D5FB-LINKEDIN">
<g id="linkedin-circle-outline-icon">
<use xlink:href="#path0_fill" transform="translate(272.283 73.7083)"/>
</g>
</g>
</g>
<defs>
<path id="path0_fill" d="M 6.24908 3.12843C 6.24751 4.40606 5.46821 5.55398 4.28138 6.02701C 3.09453 6.50004 1.73928 6.20281 0.859326 5.27653C -0.0206494 4.35026 -0.248024 2.98156 0.285201 1.82051C 0.818401 0.659481 2.00478 -0.059945 3.2808 0.00393004C 4.94513 0.0872301 6.25118 1.46203 6.24908 3.12843ZM 5.79603 8.33074L 0.640601 8.33074L 0.640601 25L 5.79603 25L 5.79603 8.33074ZM 14.0604 8.33074L 9.10801 8.33074L 9.10801 25L 14.0604 25L 14.0604 16.2514C 14.0604 13.908 15.1383 12.502 17.1849 12.502C 19.2314 12.502 19.9969 13.8455 19.9969 16.2514L 19.9969 25L 25.1524 25L 25.1524 14.4548C 25.1524 9.98674 22.6215 7.81521 19.0752 7.81521C 17.034 7.79221 15.1303 8.84189 14.0604 10.5804L 14.0604 8.33074Z"/>
</defs>
</svg>
