<svg width="1280" height="1040" viewBox="0 0 1280 1040" version="1.1" xmlns="http://www.w3.org/2000/svg" xmlns:xlink="http://www.w3.org/1999/xlink">
<title>u1F426-TWITTER</title>
<desc>Created using Figma</desc>
<g id="Canvas" transform="matrix(40 0 0 40 -8400 -2920)">
<g id="logos/u1F426-TWITTER">
<g id="Vector">
<g id="Vector">
<use xlink:href="#path0_fill" transform="translate(210.854 73.7237)"/>
</g>
</g>
</g>
</g>
<defs>
<path id="path0_fill" d="M 30.9403 2.95765C 30.4028 3.186 29.8324 3.38568 29.2292 3.55668C 28.626 3.72769 28.0069 3.85385 27.3719 3.93519C 27.9913 3.54417 28.5371 3.05123 29.0095 2.45636C 29.4818 1.8615 29.8403 1.20563 30.0848 0.48877C 29.4982 0.814617 28.875 1.10371 28.2149 1.35604C 27.5549 1.60838 26.8665 1.80806 26.1496 1.95508C 25.5302 1.35239 24.8214 0.875876 24.0232 0.525526C 23.225 0.175175 22.3698 -3.96209e-10 21.4574 -3.96209e-10C 20.5773 -3.96209e-10 19.7547 0.162923 18.9893 0.48877C 18.224 0.814617 17.5519 1.26663 16.9732 1.84481C 16.3945 2.423 15.9425 3.09502 15.6172 3.86089C 15.2919 4.62676 15.1289 5.44946 15.1284 6.32898C 15.1284 6.5735 15.1407 6.81802 15.1652 7.06253C 15.1897 7.30705 15.2264 7.54322 15.2754 7.77105C 13.9559 7.68972 12.6809 7.47779 11.4505 7.13526C 10.2201 6.79273 9.05515 6.33654 7.95561 5.7667C 6.85608 5.19686 5.82562 4.52484 4.86424 3.75063C 3.90286 2.97641 3.03116 2.10888 2.24912 1.14802C 1.97228 1.58805 1.75644 2.07682 1.6016 2.61433C 1.44676 3.15185 1.36934 3.71387 1.36934 4.30039C 1.36934 5.39211 1.62193 6.39806 2.12713 7.31826C 2.63232 8.23845 3.30852 8.98372 4.15572 9.55409C 3.63436 9.53792 3.13334 9.4605 2.65265 9.32182C 2.17196 9.18314 1.71161 8.99989 1.27158 8.77205L 1.30834 8.80881C 1.30834 8.80881 1.31251 8.82106 1.32085 8.84556C 1.32085 9.61143 1.44702 10.3364 1.69936 11.0204C 1.95169 11.7044 2.30204 12.3194 2.75041 12.8652C 3.19877 13.4111 3.73238 13.8753 4.35123 14.258C 4.97007 14.6407 5.63819 14.9055 6.35557 15.0526C 6.12722 15.1177 5.87462 15.1706 5.59779 15.2113C 5.32095 15.252 5.03576 15.2723 4.74224 15.2723C 4.53057 15.2723 4.31864 15.2601 4.10645 15.2355C 3.89426 15.211 3.69067 15.1826 3.49568 15.1503C 3.70735 15.7858 4.0087 16.3682 4.39971 16.8974C 4.79073 17.4265 5.24691 17.8869 5.76827 18.2784C 6.28962 18.67 6.85999 18.9755 7.47935 19.195C 8.09872 19.4145 8.75042 19.5326 9.43443 19.5492C 8.91308 19.9731 8.34689 20.3519 7.73586 20.6855C 7.12483 21.0192 6.4893 21.3002 5.82927 21.5286C 5.16923 21.7569 4.48495 21.9363 3.77643 22.0666C 3.06791 22.1969 2.3388 22.2621 1.58909 22.2621C 1.32841 22.2621 1.06356 22.254 0.794545 22.2379C 0.525526 22.2217 0.260677 22.1972 9.32249e-10 22.1644C 0.716863 22.6044 1.45823 22.9996 2.2241 23.3499C 2.98997 23.7003 3.78008 23.9977 4.59444 24.2422C 5.40879 24.4867 6.25182 24.6742 7.12353 24.8045C 7.99524 24.9348 8.87919 25 9.7754 25C 12.268 25 14.606 24.5274 16.7894 23.5822C 18.9729 22.637 20.8792 21.3497 22.5084 19.7205C 24.1377 18.0913 25.4249 16.181 26.3701 13.9898C 27.3153 11.7985 27.7879 9.46467 27.7879 6.98824L 27.7879 6.18196C 28.4073 5.74194 28.9777 5.25317 29.499 4.71565C 30.0204 4.17814 30.493 3.59969 30.9169 2.98032L 30.9403 2.95765Z"/>
</defs>
</svg>
