<svg width="1000" height="1040" viewBox="0 0 1000 1040" version="1.1" xmlns="http://www.w3.org/2000/svg" xmlns:xlink="http://www.w3.org/1999/xlink">
<title>u1F4ACu1F4DE-WHATSAPP</title>
<desc>Created using Figma</desc>
<g id="Canvas" transform="matrix(40 0 0 40 -9760 -2920)">
<g id="logos/u1F4ACu1F4DE-WHATSAPP">
<g id="Vector">
<use xlink:href="#path0_fill" transform="translate(244 73.7083)"/>
</g>
</g>
</g>
<defs>
<path id="path0_fill" d="M 0 25L 1.76641 18.6352C 1.23414 17.7477 0.8188 16.7756 0.520398 15.7188C 0.221995 14.662 0.0727937 13.5528 0.0727937 12.3912C 0.0727937 10.6808 0.395461 9.07547 1.0408 7.57519C 1.68613 6.07492 2.56946 4.76412 3.6908 3.64278C 4.81213 2.52145 6.12706 1.63399 7.6356 0.980392C 9.14413 0.326797 10.7533 5.90821e-09 12.4632 5.90821e-09C 14.1731 5.90821e-09 15.7784 0.326797 17.2792 0.980392C 18.78 1.63399 20.0908 2.52145 21.2116 3.64278C 22.3324 4.76412 23.2199 6.07492 23.874 7.57519C 24.5281 9.07547 24.8549 10.6808 24.8544 12.3912C 24.8539 14.1016 24.5271 15.7108 23.874 17.2188C 23.2209 18.7268 22.3335 20.0418 21.2116 21.1636C 20.0898 22.2855 18.779 23.1688 17.2792 23.8136C 15.7795 24.4584 14.1741 24.7811 12.4632 24.7816C 11.3822 24.7816 10.3375 24.6484 9.32921 24.382C 8.32094 24.1156 7.37308 23.7406 6.48561 23.2568L 0 25ZM 6.84881 21.0552C 7.62321 21.5715 8.4784 21.9708 9.4144 22.2532C 10.3504 22.5356 11.3264 22.6768 12.3424 22.6768C 13.7461 22.6768 15.0649 22.4107 16.2988 21.8784C 17.5327 21.3461 18.6055 20.62 19.5172 19.7C 20.429 18.78 21.151 17.7072 21.6832 16.4816C 22.2155 15.256 22.4816 13.941 22.4816 12.5368C 22.4816 11.1325 22.2155 9.81373 21.6832 8.58037C 21.151 7.347 20.429 6.27007 19.5172 5.34956C 18.6055 4.42906 17.5327 3.70293 16.2988 3.17117C 15.0649 2.63942 13.7461 2.37328 12.3424 2.37277C 10.9387 2.37225 9.61987 2.63839 8.38599 3.17117C 7.15211 3.70396 6.07931 4.43009 5.16758 5.34956C 4.25585 6.26904 3.53385 7.34597 3.00158 8.58037C 2.46931 9.81476 2.20317 11.1336 2.20317 12.5368C 2.20317 13.6178 2.36451 14.6504 2.68717 15.6344C 3.00984 16.6184 3.45357 17.5219 4.01837 18.3448L 2.97757 22.072L 6.84881 21.0552ZM 18.6584 15.4168C 18.5779 15.3522 18.4891 15.2877 18.392 15.2232C 18.295 15.1586 18.1902 15.1101 18.0776 15.0776C 17.916 14.9971 17.557 14.8195 17.0004 14.5448C 16.4439 14.2702 16.1011 14.1088 15.972 14.0608L 15.8264 14.012C 15.8264 14.012 15.7779 14.004 15.6809 13.988C 15.6003 13.988 15.5237 14.0081 15.4509 14.0484C 15.3781 14.0887 15.3177 14.1491 15.2696 14.2296C 15.1726 14.3747 15.0071 14.5846 14.7733 14.8592C 14.5394 15.1339 14.3822 15.3195 14.3016 15.416C 14.2531 15.4805 14.1966 15.5291 14.1321 15.5616C 14.0675 15.5941 13.995 15.6104 13.9144 15.6104C 13.8659 15.6104 13.8174 15.5983 13.7689 15.574C 13.7203 15.5497 13.6718 15.5216 13.6233 15.4896C 13.139 15.312 12.6914 15.0941 12.2805 14.836C 11.8695 14.5778 11.4864 14.2874 11.1312 13.9648C 10.8086 13.6741 10.506 13.3556 10.2236 13.0092C 9.94125 12.6628 9.68725 12.2957 9.46164 11.908C 9.42911 11.8434 9.40485 11.791 9.38884 11.7508C 9.37284 11.7105 9.36484 11.6661 9.36484 11.6176C 9.36484 11.537 9.38497 11.4645 9.42524 11.4C 9.46551 11.3354 9.51791 11.2789 9.58244 11.2304C 9.64698 11.1658 9.71951 11.0812 9.80005 10.9764C 9.88059 10.8716 9.96138 10.7789 10.0424 10.6984C 10.107 10.6178 10.1635 10.537 10.212 10.456C 10.2606 10.3749 10.3008 10.2861 10.3328 10.1896C 10.3654 10.141 10.3855 10.0966 10.3932 10.0564C 10.401 10.0161 10.4051 9.97171 10.4056 9.92318C 10.4061 9.87465 10.3981 9.82612 10.3816 9.77759C 10.3651 9.72906 10.3408 9.68053 10.3088 9.632C 10.2763 9.56747 10.1431 9.24893 9.90924 8.67639C 9.67537 8.10385 9.4939 7.66425 9.36484 7.35759C 9.34883 7.21252 9.2843 7.08758 9.17124 6.98278C 9.05817 6.87797 8.9211 6.82557 8.76003 6.82557L 8.08243 6.82557C 7.92084 6.82557 7.7675 6.86197 7.62243 6.93476C 7.47736 7.00756 7.3563 7.10023 7.25924 7.21277C 6.93657 7.53544 6.67844 7.91051 6.48484 8.33798C 6.29124 8.76545 6.19444 9.22932 6.19444 9.72958L 6.19444 9.77837C 6.24297 10.3917 6.37616 10.9645 6.59403 11.4968C 6.81189 12.029 7.09816 12.521 7.45284 12.9728C 8.11418 13.9408 8.88445 14.812 9.76365 15.5864C 10.6429 16.3608 11.5987 17.0141 12.6313 17.5464C 13.0345 17.724 13.3853 17.8652 13.6837 17.97C 13.9821 18.0748 14.2443 18.1595 14.4705 18.224C 14.6481 18.2885 14.8375 18.3371 15.0389 18.3696C 15.2402 18.4021 15.454 18.4184 15.6801 18.4184C 15.8091 18.4184 15.9341 18.4104 16.0549 18.3944C 16.1757 18.3784 16.3006 18.3621 16.4297 18.3456C 16.8654 18.2485 17.2606 18.075 17.6153 17.8252C 17.97 17.5753 18.2604 17.2648 18.4865 16.8936C 18.551 16.7485 18.6034 16.5872 18.6437 16.4096C 18.684 16.232 18.7041 16.0544 18.7041 15.8768C 18.7041 15.7962 18.7 15.7154 18.6917 15.6344C 18.6835 15.5533 18.6713 15.4808 18.6553 15.4168L 18.6584 15.4168Z"/>
</defs>
</svg>
