<svg width="1001" height="1042" viewBox="0 0 1001 1042" version="1.1" xmlns="http://www.w3.org/2000/svg" xmlns:xlink="http://www.w3.org/1999/xlink">
<title>u205D-MENU</title>
<desc>Created using Figma</desc>
<g id="Canvas" transform="matrix(41.67 0 0 41.67 0 -7417.26)">
<g id="bold/u205D-MENU">
<g id="Union">
<use xlink:href="#path0_fill" transform="translate(0.263817 182.5)"/>
</g>
</g>
</g>
<defs>
<path id="path0_fill" fill-rule="evenodd" d="M 0 0L 1 0L 22.12 0L 23.12 0L 23.12 2L 22.12 2L 1 2L 0 2L 0 0ZM 0 7L 1 7L 22.12 7L 23.12 7L 23.12 9L 22.12 9L 1 9L 0 9L 0 7ZM 1 14L 0 14L 0 16L 1 16L 22.12 16L 23.12 16L 23.12 14L 22.12 14L 1 14Z"/>
</defs>
</svg>
