<svg width="584" height="1042" viewBox="0 0 584 1042" version="1.1" xmlns="http://www.w3.org/2000/svg" xmlns:xlink="http://www.w3.org/1999/xlink">
<title>u26A0uFE0F-WARNING</title>
<desc>Created using Figma</desc>
<g id="Canvas" transform="matrix(41.67 0 0 41.67 -916.74 4500.36)">
<g id="bold/u26A0uFE0F-WARNING">
<g id="Subtract">
<use xlink:href="#path0_fill" transform="translate(22 -101.602)"/>
</g>
</g>
</g>
<defs>
<path id="path0_fill" fill-rule="evenodd" d="M 12.6599 12.8825L 1.0002 12.8825C 0.835428 12.8825 0.673214 12.8418 0.527975 12.764C 0.0411469 12.5032 -0.142084 11.8972 0.118715 11.4103L 5.94855 0.527977C 6.04164 0.354194 6.18402 0.211815 6.3578 0.118713C 6.84463 -0.142082 7.45071 0.0411451 7.71151 0.527977L 13.5413 11.4103C 13.6191 11.5556 13.6599 11.7178 13.6599 11.8825C 13.6599 12.4348 13.2121 12.8825 12.6599 12.8825ZM 7.33002 3.88255L 6.33002 3.88255L 6.33002 8.88255L 7.33002 8.88255L 7.33002 3.88255ZM 7.33002 9.88255L 6.33002 9.88255L 6.33002 10.8825L 7.33002 10.8825L 7.33002 9.88255Z"/>
</defs>
</svg>
