<svg width="376" height="1001" viewBox="0 0 376 1001" version="1.1" xmlns="http://www.w3.org/2000/svg" xmlns:xlink="http://www.w3.org/1999/xlink">
<title>u274C-REJECT</title>
<desc>Created using Figma</desc>
<g id="Canvas" transform="matrix(41.67 0 0 41.67 0 2458.53)">
<g id="bold/u274C-REJECT">
<g id="Shape">
<use xlink:href="#path0_fill" transform="translate(0.323817 -51.1701)"/>
</g>
</g>
</g>
<defs>
<path id="path0_fill" fill-rule="evenodd" d="M 0.219158 8.12103C 0.365264 8.26714 0.553984 8.34019 0.748791 8.34019C 0.943598 8.34019 1.13232 8.26714 1.27842 8.12103L 4.17618 5.22327L 7.07394 8.12103C 7.22005 8.26714 7.40877 8.34019 7.60358 8.34019C 7.79838 8.34019 7.9871 8.26714 8.13321 8.12103C 8.42542 7.82882 8.42542 7.36007 8.13321 7.06785L 5.22327 4.17009L 8.12103 1.27234C 8.41324 0.980124 8.41324 0.51137 8.12103 0.219159C 7.82882 -0.0730524 7.36007 -0.0730524 7.06785 0.219159L 4.17009 3.11692L 1.27234 0.219159C 0.980124 -0.0730524 0.511369 -0.0730524 0.219158 0.219159C -0.0730526 0.51137 -0.0730526 0.980124 0.219158 1.27234L 3.11692 4.17009L 0.219158 7.06785C -0.0730526 7.36007 -0.0730526 7.82882 0.219158 8.12103Z"/>
</defs>
</svg>
